<?xml version="1.0" standalone="no"?>
<!DOCTYPE svg PUBLIC "-//W3C//DTD SVG 20010904//EN"
 "http://www.w3.org/TR/2001/REC-SVG-20010904/DTD/svg10.dtd">
<svg version="1.0" xmlns="http://www.w3.org/2000/svg"
 width="218.000000pt" height="218.000000pt" viewBox="0 0 218.000000 218.000000"
 preserveAspectRatio="xMidYMid meet">
<metadata>
Created by potrace 1.11, written by Peter Selinger 2001-2013
</metadata>
<g transform="translate(0.000000,218.000000) scale(0.100000,-0.100000)"
fill="#000000" stroke="none">
<path d="M0 1090 l0 -1090 1090 0 1090 0 0 1090 0 1090 -1090 0 -1090 0 0
-1090z m700 896 c0 -16 39 -52 70 -65 21 -8 22 -10 5 -11 -25 -1 -59 -27 -75
-59 l-12 -23 -14 28 c-18 33 -43 53 -69 54 -15 1 -9 6 19 21 23 12 43 32 49
49 11 28 27 32 27 6z m881 -53 c-17 -30 -118 -143 -271 -304 -102 -107 -133
-145 -105 -127 42 26 165 78 186 78 6 0 -17 -29 -53 -63 -98 -96 -210 -241
-313 -407 -27 -43 -27 -44 -4 -26 13 11 39 36 57 55 19 20 31 29 26 21 -36
-71 -143 -187 -303 -330 -82 -73 -83 -74 -64 -35 11 22 23 52 27 66 5 23 2 28
-19 33 -30 8 -34 49 -8 79 17 18 17 20 -3 55 -12 19 -40 49 -63 66 -35 25 -54
31 -109 34 -56 3 -75 -1 -114 -21 l-47 -24 22 31 c37 53 310 320 347 340 34
18 33 17 -15 -33 -27 -28 -45 -51 -41 -51 16 0 206 131 305 209 53 43 120 103
149 135 28 32 52 53 52 47 0 -22 -52 -147 -81 -195 -27 -44 -11 -31 122 99
189 185 301 282 327 285 1 0 -2 -8 -7 -17z m138 -283 c-9 -8 -21 -24 -27 -35
-9 -16 -11 -17 -12 -3 0 9 -12 26 -27 37 -22 16 -24 20 -10 21 9 0 22 11 28
23 l11 24 27 -26 c25 -24 26 -27 10 -41z m227 -255 c-15 -19 -79 -89 -143
-155 l-115 -120 53 24 c105 47 109 44 43 -25 -65 -69 -175 -213 -201 -263
l-15 -31 31 29 c17 17 31 25 31 18 0 -14 -156 -179 -223 -234 l-50 -42 17 31
c20 40 20 59 1 67 -18 7 -19 29 -3 56 10 16 9 24 -8 46 -43 58 -120 78 -190
49 -43 -18 -40 -12 40 78 61 69 183 177 199 177 5 0 -5 -12 -22 -26 -17 -14
-31 -30 -31 -35 0 -19 213 135 285 205 77 76 81 73 33 -34 l-29 -65 113 111
c123 120 199 187 206 179 3 -2 -7 -20 -22 -40z m-1695 -80 l32 -17 -31 -15
c-17 -8 -37 -28 -45 -45 l-15 -31 -17 32 c-9 18 -30 38 -47 46 l-32 13 32 16
c17 9 39 31 48 48 l16 32 13 -32 c8 -17 28 -38 46 -47z m1599 -675 l-25 -25
-25 24 -25 24 25 26 25 26 25 -25 25 -25 -25 -25z m-947 -59 c12 -13 31 -27
42 -31 18 -7 18 -8 -5 -20 -32 -16 -59 -50 -60 -75 -1 -17 -3 -17 -11 5 -14
34 -39 60 -68 72 l-24 9 34 17 c20 10 40 31 49 51 12 27 16 30 18 15 2 -10 14
-30 25 -43z"/>
</g>
</svg>
